<?xml version="1.0" standalone="no"?>
<!DOCTYPE svg PUBLIC "-//W3C//DTD SVG 20010904//EN"
 "http://www.w3.org/TR/2001/REC-SVG-20010904/DTD/svg10.dtd">
<svg version="1.0" xmlns="http://www.w3.org/2000/svg"
 width="155.193346pt" height="271.590157pt" viewBox="0 0 155.193346 271.590157"
 preserveAspectRatio="xMidYMid meet">
<metadata>
Created by potrace 1.12, written by Peter Selinger 2001-2015
</metadata>
<g transform="translate(-130.500000,319.934810) scale(0.100000,-0.100000)"
fill="#000000" stroke="none">
<path d="M1760 3185 c-9 -11 -16 -13 -24 -5 -12 12 -66 13 -84 1 -24 -15 -9
-55 31 -81 21 -13 34 -26 29 -28 -6 -2 6 -18 26 -37 l37 -33 -27 -13 c-26 -11
-27 -14 -21 -69 7 -69 -19 -136 -66 -171 l-30 -22 6 -92 c5 -84 4 -93 -14
-106 -16 -11 -24 -38 -38 -118 -9 -57 -14 -120 -11 -141 7 -43 -1 -55 -22 -37
-13 10 -14 9 -10 -3 2 -8 13 -15 24 -15 16 0 19 7 17 45 -3 78 27 240 49 262
17 17 20 31 16 108 l-3 87 31 27 c44 36 66 96 63 169 -2 56 -1 60 26 75 l29
15 -32 28 c-30 27 -43 47 -22 34 6 -3 10 -3 10 2 0 4 -23 21 -51 36 -39 23
-49 34 -47 50 4 27 49 35 86 16 20 -12 25 -11 33 4 10 18 39 24 39 8 0 -18 96
-115 171 -172 43 -33 89 -74 102 -92 43 -57 78 -137 75 -170 -3 -28 0 -32 19
-29 16 2 34 -13 72 -58 47 -56 87 -119 79 -124 -2 -1 -15 -7 -30 -14 -39 -16
-35 -39 10 -51 31 -9 39 -8 49 5 6 9 16 13 22 10 15 -9 34 -114 28 -153 -5
-28 0 -40 39 -85 24 -28 44 -57 44 -63 0 -7 18 -32 39 -57 27 -30 38 -51 35
-64 -3 -12 3 -27 15 -38 14 -13 21 -31 21 -58 0 -31 4 -38 20 -38 27 0 40 -54
40 -168 0 -75 -5 -109 -26 -170 -50 -146 -74 -179 -180 -254 -92 -64 -117 -75
-278 -123 -33 -9 -76 -27 -95 -40 -70 -45 -101 -49 -193 -24 -46 12 -94 30
-109 40 -37 26 -76 104 -103 210 -14 52 -35 117 -47 144 -17 37 -23 71 -25
130 -3 135 -34 416 -54 488 -10 38 -16 75 -13 83 3 8 0 14 -6 14 -16 0 -14
-29 8 -101 17 -57 44 -308 54 -499 2 -40 15 -97 34 -150 17 -47 41 -117 52
-157 28 -92 66 -160 100 -177 14 -8 64 -24 110 -37 82 -22 84 -23 134 -5 28
10 63 27 77 38 14 10 69 30 121 45 109 29 176 62 274 136 79 59 102 94 145
222 26 78 30 104 30 198 0 118 -17 184 -45 173 -11 -4 -15 2 -15 28 0 18 -9
45 -20 59 -11 14 -18 32 -14 40 3 8 -12 34 -35 61 -23 26 -41 51 -41 56 0 5
-17 29 -39 54 -34 39 -39 51 -39 94 0 53 -26 157 -42 167 -5 3 -17 -3 -26 -14
-14 -16 -22 -17 -46 -9 -23 8 -26 13 -17 24 7 8 20 12 30 9 28 -9 24 21 -10
80 -36 63 -116 149 -130 140 -7 -4 -11 5 -11 26 0 33 -51 133 -92 180 -13 15
-65 59 -116 99 -51 39 -106 92 -123 116 -31 46 -57 55 -79 29z"/>
<path d="M1590 3136 c0 -29 24 -56 51 -56 25 0 24 12 -1 35 -12 10 -18 25 -16
32 3 8 -2 13 -14 13 -14 0 -20 -7 -20 -24z m39 -30 c15 -18 15 -18 -6 -7 -14
7 -23 21 -22 34 0 15 2 17 6 7 3 -8 13 -24 22 -34z"/>
<path d="M1490 3041 c0 -23 35 -47 45 -31 8 13 -1 27 -26 40 -16 9 -19 7 -19
-9z"/>
<path d="M1515 2800 c9 -14 81 -50 100 -50 22 0 18 27 -7 44 -25 18 -103 22
-93 6z m86 -20 c30 -25 14 -25 -31 0 -28 16 -31 19 -14 20 12 0 32 -9 45 -20z"/>
<path d="M1315 598 c-2 -7 -5 -36 -7 -63 l-3 -50 38 4 37 3 0 53 c0 46 -3 53
-22 59 -33 8 -38 8 -43 -6z"/>
<path d="M1400 548 l0 -58 85 0 84 0 -2 56 -2 56 -83 1 -82 2 0 -57z m50 -3
c5 3 7 12 3 20 -3 10 2 15 16 15 12 0 21 -6 21 -14 0 -9 7 -13 20 -11 16 3 20
-2 20 -21 0 -20 -3 -23 -17 -16 -10 5 -32 9 -49 7 -28 -1 -30 1 -31 34 0 28 1
30 4 8 2 -15 8 -25 13 -22z"/>
<path d="M1800 595 c-18 -22 -6 -42 29 -50 22 -5 31 -12 31 -26 0 -10 -2 -19
-4 -19 -2 0 -11 -3 -19 -6 -8 -3 -22 2 -31 11 -14 15 -16 15 -16 1 0 -9 4 -16
9 -16 5 0 16 -3 24 -6 18 -6 61 32 52 47 -4 5 -22 16 -42 24 -19 8 -33 20 -31
27 7 21 41 22 55 2 12 -17 13 -17 13 2 0 25 -51 32 -70 9z"/>
<path d="M1908 604 c7 -4 12 -25 12 -54 0 -29 -5 -50 -12 -53 -7 -3 1 -5 17
-5 17 0 24 2 18 5 -18 7 -16 43 1 43 8 0 23 -11 34 -25 11 -14 25 -25 30 -25
6 0 0 12 -13 26 -23 25 -24 28 -7 40 29 22 3 49 -49 51 -24 1 -38 0 -31 -3z
m70 -16 c15 -15 -3 -38 -29 -38 -14 0 -19 7 -19 25 0 27 26 35 48 13z"/>
<path d="M2057 603 c20 -4 22 -9 17 -49 -2 -26 0 -44 6 -44 5 0 10 20 10 44 0
34 4 46 18 49 9 3 -3 5 -28 4 -25 0 -35 -2 -23 -4z"/>
<path d="M2258 603 c7 -3 12 -23 12 -49 0 -24 4 -44 9 -44 5 0 9 19 9 42 1 22
7 45 14 49 8 6 0 8 -22 8 -19 0 -29 -3 -22 -6z"/>
<path d="M2393 603 c9 -2 17 -6 17 -9 0 -13 -35 -90 -44 -96 -6 -4 3 -8 19 -8
21 0 26 3 16 9 -19 12 -5 31 24 31 29 0 43 -19 24 -31 -10 -6 -8 -9 8 -9 20 0
21 2 11 25 -8 18 -19 25 -39 25 -27 0 -28 1 -17 31 l11 32 13 -29 c15 -34 18
-26 4 10 -7 20 -16 26 -37 25 -17 -1 -21 -3 -10 -6z"/>
<path d="M2499 601 c9 -6 12 -24 10 -60 -4 -46 -2 -51 16 -50 11 0 14 3 8 6
-8 3 -13 22 -13 46 l1 42 27 -47 c15 -27 30 -48 34 -48 3 0 8 27 10 60 3 55 1
60 -17 59 -11 0 -14 -3 -7 -6 7 -3 12 -23 12 -51 l0 -47 -31 53 c-18 30 -38
52 -47 52 -13 0 -14 -2 -3 -9z"/>
<path d="M2628 603 c7 -3 12 -24 12 -53 0 -29 -5 -50 -12 -53 -7 -3 1 -6 17
-6 17 0 25 3 19 7 -16 9 -16 95 -1 104 7 4 -1 7 -18 7 -16 0 -24 -3 -17 -6z"/>
<path d="M2693 603 c4 -3 -2 -16 -13 -28 l-20 -22 20 -18 c11 -10 20 -24 20
-32 0 -7 8 -13 18 -13 10 0 13 3 7 8 -6 4 -19 20 -29 36 l-19 30 27 23 c26 22
26 23 5 23 -12 0 -19 -3 -16 -7z"/>
<path d="M2769 601 c11 -7 11 -15 1 -47 -7 -22 -17 -45 -23 -51 -7 -10 -3 -13
14 -12 13 0 19 3 12 5 -22 10 -1 34 29 34 25 0 29 -3 25 -20 -4 -15 0 -20 16
-20 13 0 17 3 11 8 -6 4 -19 31 -29 60 -16 44 -23 52 -44 52 -19 0 -22 -3 -12
-9z m44 -41 c4 -15 0 -20 -14 -20 -20 0 -23 8 -13 34 7 20 20 13 27 -14z"/>
<path d="M2340 521 c0 -16 -8 -21 -47 -24 l-48 -3 53 -2 c49 -2 52 -1 52 23 0
14 -2 25 -5 25 -3 0 -5 -9 -5 -19z"/>
<path d="M2058 493 c12 -2 32 -2 45 0 12 2 2 4 -23 4 -25 0 -35 -2 -22 -4z"/>
</g>
</svg>
